<mxfile host="65bd71144e">
    <diagram id="LkOnWeVT7-0t_uNRfe_2" name="Page-1">
        <mxGraphModel dx="1038" dy="901" grid="1" gridSize="10" guides="1" tooltips="1" connect="1" arrows="1" fold="1" page="1" pageScale="1" pageWidth="1100" pageHeight="850" math="0" shadow="0">
            <root>
                <mxCell id="0"/>
                <mxCell id="1" parent="0"/>
                <mxCell id="20" value="User" style="shape=table;startSize=30;container=1;collapsible=0;childLayout=tableLayout;fontStyle=1;align=left;labelBackgroundColor=none;spacing=6;swimlaneLine=1;" parent="1" vertex="1">
                    <mxGeometry x="190" y="106" width="240" height="194" as="geometry"/>
                </mxCell>
                <mxCell id="21" value="" style="shape=tableRow;horizontal=0;startSize=0;swimlaneHead=0;swimlaneBody=0;top=0;left=0;bottom=0;right=0;collapsible=0;dropTarget=0;fillColor=none;points=[[0,0.5],[1,0.5]];portConstraint=eastwest;labelBackgroundColor=none;swimlaneLine=0;strokeColor=none;" parent="20" vertex="1">
                    <mxGeometry y="30" width="240" height="26" as="geometry"/>
                </mxCell>
                <mxCell id="22" value="PK" style="shape=partialRectangle;html=1;whiteSpace=wrap;connectable=0;fillColor=none;top=0;left=0;bottom=0;right=0;overflow=hidden;labelBackgroundColor=none;strokeColor=none;strokeWidth=0;spacing=0;spacingTop=8;spacingLeft=8;spacingRight=8;spacingBottom=6;" parent="21" vertex="1">
                    <mxGeometry width="40" height="26" as="geometry">
                        <mxRectangle width="40" height="26" as="alternateBounds"/>
                    </mxGeometry>
                </mxCell>
                <mxCell id="23" value="id" style="shape=partialRectangle;html=1;whiteSpace=wrap;connectable=0;fillColor=none;top=0;left=0;bottom=0;right=0;overflow=hidden;labelBackgroundColor=none;strokeColor=none;strokeWidth=0;align=left;spacing=0;spacingTop=8;spacingLeft=8;spacingRight=8;spacingBottom=6;" parent="21" vertex="1">
                    <mxGeometry x="40" width="110" height="26" as="geometry">
                        <mxRectangle width="110" height="26" as="alternateBounds"/>
                    </mxGeometry>
                </mxCell>
                <mxCell id="24" value="BINARY(16)" style="shape=partialRectangle;html=1;whiteSpace=wrap;connectable=0;fillColor=none;top=0;left=0;bottom=0;right=0;overflow=hidden;labelBackgroundColor=none;strokeColor=none;strokeWidth=0;align=left;spacing=0;spacingTop=8;spacingLeft=8;spacingRight=8;spacingBottom=6;" parent="21" vertex="1">
                    <mxGeometry x="150" width="90" height="26" as="geometry">
                        <mxRectangle width="90" height="26" as="alternateBounds"/>
                    </mxGeometry>
                </mxCell>
                <mxCell id="33" style="shape=tableRow;horizontal=0;startSize=0;swimlaneHead=0;swimlaneBody=0;top=0;left=0;bottom=0;right=0;collapsible=0;dropTarget=0;fillColor=none;points=[[0,0.5],[1,0.5]];portConstraint=eastwest;labelBackgroundColor=none;" parent="20" vertex="1">
                    <mxGeometry y="56" width="240" height="27" as="geometry"/>
                </mxCell>
                <mxCell id="34" value="" style="shape=partialRectangle;html=1;whiteSpace=wrap;connectable=0;fillColor=none;top=0;left=0;bottom=0;right=0;overflow=hidden;labelBackgroundColor=none;strokeColor=none;strokeWidth=0;spacing=0;spacingTop=8;spacingLeft=8;spacingRight=8;spacingBottom=6;" parent="33" vertex="1">
                    <mxGeometry width="40" height="27" as="geometry">
                        <mxRectangle width="40" height="27" as="alternateBounds"/>
                    </mxGeometry>
                </mxCell>
                <mxCell id="35" value="name" style="shape=partialRectangle;html=1;whiteSpace=wrap;connectable=0;fillColor=none;top=0;left=0;bottom=0;right=0;overflow=hidden;labelBackgroundColor=none;strokeColor=none;strokeWidth=0;spacing=0;spacingTop=8;spacingLeft=8;spacingRight=8;spacingBottom=6;align=left;" parent="33" vertex="1">
                    <mxGeometry x="40" width="110" height="27" as="geometry">
                        <mxRectangle width="110" height="27" as="alternateBounds"/>
                    </mxGeometry>
                </mxCell>
                <mxCell id="36" value="VARCHAR" style="shape=partialRectangle;html=1;whiteSpace=wrap;connectable=0;fillColor=none;top=0;left=0;bottom=0;right=0;overflow=hidden;labelBackgroundColor=none;strokeColor=none;strokeWidth=0;spacing=0;spacingTop=8;spacingLeft=8;spacingRight=8;spacingBottom=6;align=left;" parent="33" vertex="1">
                    <mxGeometry x="150" width="90" height="27" as="geometry">
                        <mxRectangle width="90" height="27" as="alternateBounds"/>
                    </mxGeometry>
                </mxCell>
                <mxCell id="37" style="shape=tableRow;horizontal=0;startSize=0;swimlaneHead=0;swimlaneBody=0;top=0;left=0;bottom=0;right=0;collapsible=0;dropTarget=0;fillColor=none;points=[[0,0.5],[1,0.5]];portConstraint=eastwest;labelBackgroundColor=none;" parent="20" vertex="1">
                    <mxGeometry y="83" width="240" height="28" as="geometry"/>
                </mxCell>
                <mxCell id="38" style="shape=partialRectangle;html=1;whiteSpace=wrap;connectable=0;fillColor=none;top=0;left=0;bottom=0;right=0;overflow=hidden;labelBackgroundColor=none;strokeColor=none;strokeWidth=0;spacing=0;spacingTop=8;spacingLeft=8;spacingRight=8;spacingBottom=6;" parent="37" vertex="1">
                    <mxGeometry width="40" height="28" as="geometry">
                        <mxRectangle width="40" height="28" as="alternateBounds"/>
                    </mxGeometry>
                </mxCell>
                <mxCell id="39" value="email" style="shape=partialRectangle;html=1;whiteSpace=wrap;connectable=0;fillColor=none;top=0;left=0;bottom=0;right=0;overflow=hidden;labelBackgroundColor=none;strokeColor=none;strokeWidth=0;spacing=0;spacingTop=8;spacingLeft=8;spacingRight=8;spacingBottom=6;align=left;" parent="37" vertex="1">
                    <mxGeometry x="40" width="110" height="28" as="geometry">
                        <mxRectangle width="110" height="28" as="alternateBounds"/>
                    </mxGeometry>
                </mxCell>
                <mxCell id="40" value="VARCHAR" style="shape=partialRectangle;html=1;whiteSpace=wrap;connectable=0;fillColor=none;top=0;left=0;bottom=0;right=0;overflow=hidden;labelBackgroundColor=none;strokeColor=none;strokeWidth=0;spacing=0;spacingTop=8;spacingLeft=8;spacingRight=8;spacingBottom=6;align=left;" parent="37" vertex="1">
                    <mxGeometry x="150" width="90" height="28" as="geometry">
                        <mxRectangle width="90" height="28" as="alternateBounds"/>
                    </mxGeometry>
                </mxCell>
                <mxCell id="78" style="shape=tableRow;horizontal=0;startSize=0;swimlaneHead=0;swimlaneBody=0;top=0;left=0;bottom=0;right=0;collapsible=0;dropTarget=0;fillColor=none;points=[[0,0.5],[1,0.5]];portConstraint=eastwest;labelBackgroundColor=none;" parent="20" vertex="1">
                    <mxGeometry y="111" width="240" height="28" as="geometry"/>
                </mxCell>
                <mxCell id="79" style="shape=partialRectangle;html=1;whiteSpace=wrap;connectable=0;fillColor=none;top=0;left=0;bottom=0;right=0;overflow=hidden;labelBackgroundColor=none;strokeColor=none;strokeWidth=0;spacing=0;spacingTop=8;spacingLeft=8;spacingRight=8;spacingBottom=6;" parent="78" vertex="1">
                    <mxGeometry width="40" height="28" as="geometry">
                        <mxRectangle width="40" height="28" as="alternateBounds"/>
                    </mxGeometry>
                </mxCell>
                <mxCell id="80" value="password" style="shape=partialRectangle;html=1;whiteSpace=wrap;connectable=0;fillColor=none;top=0;left=0;bottom=0;right=0;overflow=hidden;labelBackgroundColor=none;strokeColor=none;strokeWidth=0;spacing=0;spacingTop=8;spacingLeft=8;spacingRight=8;spacingBottom=6;align=left;" parent="78" vertex="1">
                    <mxGeometry x="40" width="110" height="28" as="geometry">
                        <mxRectangle width="110" height="28" as="alternateBounds"/>
                    </mxGeometry>
                </mxCell>
                <mxCell id="81" value="VARCHAR" style="shape=partialRectangle;html=1;whiteSpace=wrap;connectable=0;fillColor=none;top=0;left=0;bottom=0;right=0;overflow=hidden;labelBackgroundColor=none;strokeColor=none;strokeWidth=0;spacing=0;spacingTop=8;spacingLeft=8;spacingRight=8;spacingBottom=6;align=left;" parent="78" vertex="1">
                    <mxGeometry x="150" width="90" height="28" as="geometry">
                        <mxRectangle width="90" height="28" as="alternateBounds"/>
                    </mxGeometry>
                </mxCell>
                <mxCell id="41" style="shape=tableRow;horizontal=0;startSize=0;swimlaneHead=0;swimlaneBody=0;top=0;left=0;bottom=0;right=0;collapsible=0;dropTarget=0;fillColor=none;points=[[0,0.5],[1,0.5]];portConstraint=eastwest;labelBackgroundColor=none;" parent="20" vertex="1">
                    <mxGeometry y="139" width="240" height="27" as="geometry"/>
                </mxCell>
                <mxCell id="42" style="shape=partialRectangle;html=1;whiteSpace=wrap;connectable=0;fillColor=none;top=0;left=0;bottom=0;right=0;overflow=hidden;labelBackgroundColor=none;strokeColor=none;strokeWidth=0;spacing=0;spacingTop=8;spacingLeft=8;spacingRight=8;spacingBottom=6;" parent="41" vertex="1">
                    <mxGeometry width="40" height="27" as="geometry">
                        <mxRectangle width="40" height="27" as="alternateBounds"/>
                    </mxGeometry>
                </mxCell>
                <mxCell id="43" value="createdAt" style="shape=partialRectangle;html=1;whiteSpace=wrap;connectable=0;fillColor=none;top=0;left=0;bottom=0;right=0;overflow=hidden;labelBackgroundColor=none;strokeColor=none;strokeWidth=0;spacing=0;spacingTop=8;spacingLeft=8;spacingRight=8;spacingBottom=6;align=left;" parent="41" vertex="1">
                    <mxGeometry x="40" width="110" height="27" as="geometry">
                        <mxRectangle width="110" height="27" as="alternateBounds"/>
                    </mxGeometry>
                </mxCell>
                <mxCell id="44" value="DATETIME" style="shape=partialRectangle;html=1;whiteSpace=wrap;connectable=0;fillColor=none;top=0;left=0;bottom=0;right=0;overflow=hidden;labelBackgroundColor=none;strokeColor=none;strokeWidth=0;spacing=0;spacingTop=8;spacingLeft=8;spacingRight=8;spacingBottom=6;align=left;" parent="41" vertex="1">
                    <mxGeometry x="150" width="90" height="27" as="geometry">
                        <mxRectangle width="90" height="27" as="alternateBounds"/>
                    </mxGeometry>
                </mxCell>
                <mxCell id="45" style="shape=tableRow;horizontal=0;startSize=0;swimlaneHead=0;swimlaneBody=0;top=0;left=0;bottom=0;right=0;collapsible=0;dropTarget=0;fillColor=none;points=[[0,0.5],[1,0.5]];portConstraint=eastwest;labelBackgroundColor=none;" parent="20" vertex="1">
                    <mxGeometry y="166" width="240" height="28" as="geometry"/>
                </mxCell>
                <mxCell id="46" style="shape=partialRectangle;html=1;whiteSpace=wrap;connectable=0;fillColor=none;top=0;left=0;bottom=0;right=0;overflow=hidden;labelBackgroundColor=none;strokeColor=none;strokeWidth=0;spacing=0;spacingTop=8;spacingLeft=8;spacingRight=8;spacingBottom=6;" parent="45" vertex="1">
                    <mxGeometry width="40" height="28" as="geometry">
                        <mxRectangle width="40" height="28" as="alternateBounds"/>
                    </mxGeometry>
                </mxCell>
                <mxCell id="47" value="updatedAt" style="shape=partialRectangle;html=1;whiteSpace=wrap;connectable=0;fillColor=none;top=0;left=0;bottom=0;right=0;overflow=hidden;labelBackgroundColor=none;strokeColor=none;strokeWidth=0;spacing=0;spacingTop=8;spacingLeft=8;spacingRight=8;spacingBottom=6;align=left;" parent="45" vertex="1">
                    <mxGeometry x="40" width="110" height="28" as="geometry">
                        <mxRectangle width="110" height="28" as="alternateBounds"/>
                    </mxGeometry>
                </mxCell>
                <mxCell id="48" value="DATETIME" style="shape=partialRectangle;html=1;whiteSpace=wrap;connectable=0;fillColor=none;top=0;left=0;bottom=0;right=0;overflow=hidden;labelBackgroundColor=none;strokeColor=none;strokeWidth=0;spacing=0;spacingTop=8;spacingLeft=8;spacingRight=8;spacingBottom=6;align=left;" parent="45" vertex="1">
                    <mxGeometry x="150" width="90" height="28" as="geometry">
                        <mxRectangle width="90" height="28" as="alternateBounds"/>
                    </mxGeometry>
                </mxCell>
                <mxCell id="53" value="MeetingMember" style="shape=table;startSize=30;container=1;collapsible=0;childLayout=tableLayout;fontStyle=1;align=left;labelBackgroundColor=none;spacing=6;swimlaneLine=1;" parent="1" vertex="1">
                    <mxGeometry x="500" y="20" width="240" height="166" as="geometry"/>
                </mxCell>
                <mxCell id="54" value="" style="shape=tableRow;horizontal=0;startSize=0;swimlaneHead=0;swimlaneBody=0;top=0;left=0;bottom=0;right=0;collapsible=0;dropTarget=0;fillColor=none;points=[[0,0.5],[1,0.5]];portConstraint=eastwest;labelBackgroundColor=none;swimlaneLine=0;strokeColor=none;" parent="53" vertex="1">
                    <mxGeometry y="30" width="240" height="26" as="geometry"/>
                </mxCell>
                <mxCell id="55" value="PK" style="shape=partialRectangle;html=1;whiteSpace=wrap;connectable=0;fillColor=none;top=0;left=0;bottom=0;right=0;overflow=hidden;labelBackgroundColor=none;strokeColor=none;strokeWidth=0;spacing=0;spacingTop=8;spacingLeft=8;spacingRight=8;spacingBottom=6;" parent="54" vertex="1">
                    <mxGeometry width="40" height="26" as="geometry">
                        <mxRectangle width="40" height="26" as="alternateBounds"/>
                    </mxGeometry>
                </mxCell>
                <mxCell id="56" value="id" style="shape=partialRectangle;html=1;whiteSpace=wrap;connectable=0;fillColor=none;top=0;left=0;bottom=0;right=0;overflow=hidden;labelBackgroundColor=none;strokeColor=none;strokeWidth=0;align=left;spacing=0;spacingTop=8;spacingLeft=8;spacingRight=8;spacingBottom=6;" parent="54" vertex="1">
                    <mxGeometry x="40" width="110" height="26" as="geometry">
                        <mxRectangle width="110" height="26" as="alternateBounds"/>
                    </mxGeometry>
                </mxCell>
                <mxCell id="57" value="BINARY(16)" style="shape=partialRectangle;html=1;whiteSpace=wrap;connectable=0;fillColor=none;top=0;left=0;bottom=0;right=0;overflow=hidden;labelBackgroundColor=none;strokeColor=none;strokeWidth=0;align=left;spacing=0;spacingTop=8;spacingLeft=8;spacingRight=8;spacingBottom=6;" parent="54" vertex="1">
                    <mxGeometry x="150" width="90" height="26" as="geometry">
                        <mxRectangle width="90" height="26" as="alternateBounds"/>
                    </mxGeometry>
                </mxCell>
                <mxCell id="58" value="" style="shape=tableRow;horizontal=0;startSize=0;swimlaneHead=0;swimlaneBody=0;top=0;left=0;bottom=0;right=0;collapsible=0;dropTarget=0;fillColor=none;points=[[0,0.5],[1,0.5]];portConstraint=eastwest;labelBackgroundColor=none;" parent="53" vertex="1">
                    <mxGeometry y="56" width="240" height="28" as="geometry"/>
                </mxCell>
                <mxCell id="59" value="FK" style="shape=partialRectangle;html=1;whiteSpace=wrap;connectable=0;fillColor=none;top=0;left=0;bottom=0;right=0;overflow=hidden;labelBackgroundColor=none;strokeColor=none;strokeWidth=0;spacing=0;spacingTop=8;spacingLeft=8;spacingRight=8;spacingBottom=6;" parent="58" vertex="1">
                    <mxGeometry width="40" height="28" as="geometry">
                        <mxRectangle width="40" height="28" as="alternateBounds"/>
                    </mxGeometry>
                </mxCell>
                <mxCell id="60" value="meetingId" style="shape=partialRectangle;html=1;whiteSpace=wrap;connectable=0;fillColor=none;top=0;left=0;bottom=0;right=0;overflow=hidden;labelBackgroundColor=none;strokeColor=none;strokeWidth=0;spacing=0;spacingTop=8;spacingLeft=8;spacingRight=8;spacingBottom=6;align=left;" parent="58" vertex="1">
                    <mxGeometry x="40" width="110" height="28" as="geometry">
                        <mxRectangle width="110" height="28" as="alternateBounds"/>
                    </mxGeometry>
                </mxCell>
                <mxCell id="61" value="BINARY(16)" style="shape=partialRectangle;html=1;whiteSpace=wrap;connectable=0;fillColor=none;top=0;left=0;bottom=0;right=0;overflow=hidden;labelBackgroundColor=none;strokeColor=none;strokeWidth=0;spacing=0;spacingTop=8;spacingLeft=8;spacingRight=8;spacingBottom=6;align=left;" parent="58" vertex="1">
                    <mxGeometry x="150" width="90" height="28" as="geometry">
                        <mxRectangle width="90" height="28" as="alternateBounds"/>
                    </mxGeometry>
                </mxCell>
                <mxCell id="62" style="shape=tableRow;horizontal=0;startSize=0;swimlaneHead=0;swimlaneBody=0;top=0;left=0;bottom=0;right=0;collapsible=0;dropTarget=0;fillColor=none;points=[[0,0.5],[1,0.5]];portConstraint=eastwest;labelBackgroundColor=none;" parent="53" vertex="1">
                    <mxGeometry y="84" width="240" height="27" as="geometry"/>
                </mxCell>
                <mxCell id="63" value="" style="shape=partialRectangle;html=1;whiteSpace=wrap;connectable=0;fillColor=none;top=0;left=0;bottom=0;right=0;overflow=hidden;labelBackgroundColor=none;strokeColor=none;strokeWidth=0;spacing=0;spacingTop=8;spacingLeft=8;spacingRight=8;spacingBottom=6;" parent="62" vertex="1">
                    <mxGeometry width="40" height="27" as="geometry">
                        <mxRectangle width="40" height="27" as="alternateBounds"/>
                    </mxGeometry>
                </mxCell>
                <mxCell id="64" value="userId" style="shape=partialRectangle;html=1;whiteSpace=wrap;connectable=0;fillColor=none;top=0;left=0;bottom=0;right=0;overflow=hidden;labelBackgroundColor=none;strokeColor=none;strokeWidth=0;spacing=0;spacingTop=8;spacingLeft=8;spacingRight=8;spacingBottom=6;align=left;" parent="62" vertex="1">
                    <mxGeometry x="40" width="110" height="27" as="geometry">
                        <mxRectangle width="110" height="27" as="alternateBounds"/>
                    </mxGeometry>
                </mxCell>
                <mxCell id="65" value="BINARY(16)" style="shape=partialRectangle;html=1;whiteSpace=wrap;connectable=0;fillColor=none;top=0;left=0;bottom=0;right=0;overflow=hidden;labelBackgroundColor=none;strokeColor=none;strokeWidth=0;spacing=0;spacingTop=8;spacingLeft=8;spacingRight=8;spacingBottom=6;align=left;" parent="62" vertex="1">
                    <mxGeometry x="150" width="90" height="27" as="geometry">
                        <mxRectangle width="90" height="27" as="alternateBounds"/>
                    </mxGeometry>
                </mxCell>
                <mxCell id="70" style="shape=tableRow;horizontal=0;startSize=0;swimlaneHead=0;swimlaneBody=0;top=0;left=0;bottom=0;right=0;collapsible=0;dropTarget=0;fillColor=none;points=[[0,0.5],[1,0.5]];portConstraint=eastwest;labelBackgroundColor=none;" parent="53" vertex="1">
                    <mxGeometry y="111" width="240" height="27" as="geometry"/>
                </mxCell>
                <mxCell id="71" style="shape=partialRectangle;html=1;whiteSpace=wrap;connectable=0;fillColor=none;top=0;left=0;bottom=0;right=0;overflow=hidden;labelBackgroundColor=none;strokeColor=none;strokeWidth=0;spacing=0;spacingTop=8;spacingLeft=8;spacingRight=8;spacingBottom=6;" parent="70" vertex="1">
                    <mxGeometry width="40" height="27" as="geometry">
                        <mxRectangle width="40" height="27" as="alternateBounds"/>
                    </mxGeometry>
                </mxCell>
                <mxCell id="72" value="createdAt" style="shape=partialRectangle;html=1;whiteSpace=wrap;connectable=0;fillColor=none;top=0;left=0;bottom=0;right=0;overflow=hidden;labelBackgroundColor=none;strokeColor=none;strokeWidth=0;spacing=0;spacingTop=8;spacingLeft=8;spacingRight=8;spacingBottom=6;align=left;" parent="70" vertex="1">
                    <mxGeometry x="40" width="110" height="27" as="geometry">
                        <mxRectangle width="110" height="27" as="alternateBounds"/>
                    </mxGeometry>
                </mxCell>
                <mxCell id="73" value="DATETIME" style="shape=partialRectangle;html=1;whiteSpace=wrap;connectable=0;fillColor=none;top=0;left=0;bottom=0;right=0;overflow=hidden;labelBackgroundColor=none;strokeColor=none;strokeWidth=0;spacing=0;spacingTop=8;spacingLeft=8;spacingRight=8;spacingBottom=6;align=left;" parent="70" vertex="1">
                    <mxGeometry x="150" width="90" height="27" as="geometry">
                        <mxRectangle width="90" height="27" as="alternateBounds"/>
                    </mxGeometry>
                </mxCell>
                <mxCell id="74" style="shape=tableRow;horizontal=0;startSize=0;swimlaneHead=0;swimlaneBody=0;top=0;left=0;bottom=0;right=0;collapsible=0;dropTarget=0;fillColor=none;points=[[0,0.5],[1,0.5]];portConstraint=eastwest;labelBackgroundColor=none;" parent="53" vertex="1">
                    <mxGeometry y="138" width="240" height="28" as="geometry"/>
                </mxCell>
                <mxCell id="75" style="shape=partialRectangle;html=1;whiteSpace=wrap;connectable=0;fillColor=none;top=0;left=0;bottom=0;right=0;overflow=hidden;labelBackgroundColor=none;strokeColor=none;strokeWidth=0;spacing=0;spacingTop=8;spacingLeft=8;spacingRight=8;spacingBottom=6;" parent="74" vertex="1">
                    <mxGeometry width="40" height="28" as="geometry">
                        <mxRectangle width="40" height="28" as="alternateBounds"/>
                    </mxGeometry>
                </mxCell>
                <mxCell id="76" value="updatedAt" style="shape=partialRectangle;html=1;whiteSpace=wrap;connectable=0;fillColor=none;top=0;left=0;bottom=0;right=0;overflow=hidden;labelBackgroundColor=none;strokeColor=none;strokeWidth=0;spacing=0;spacingTop=8;spacingLeft=8;spacingRight=8;spacingBottom=6;align=left;" parent="74" vertex="1">
                    <mxGeometry x="40" width="110" height="28" as="geometry">
                        <mxRectangle width="110" height="28" as="alternateBounds"/>
                    </mxGeometry>
                </mxCell>
                <mxCell id="77" value="DATETIME" style="shape=partialRectangle;html=1;whiteSpace=wrap;connectable=0;fillColor=none;top=0;left=0;bottom=0;right=0;overflow=hidden;labelBackgroundColor=none;strokeColor=none;strokeWidth=0;spacing=0;spacingTop=8;spacingLeft=8;spacingRight=8;spacingBottom=6;align=left;" parent="74" vertex="1">
                    <mxGeometry x="150" width="90" height="28" as="geometry">
                        <mxRectangle width="90" height="28" as="alternateBounds"/>
                    </mxGeometry>
                </mxCell>
                <mxCell id="82" value="Meeting" style="shape=table;startSize=30;container=1;collapsible=0;childLayout=tableLayout;fontStyle=1;align=left;labelBackgroundColor=none;spacing=6;swimlaneLine=1;" parent="1" vertex="1">
                    <mxGeometry x="500" y="260" width="240" height="166" as="geometry"/>
                </mxCell>
                <mxCell id="83" value="" style="shape=tableRow;horizontal=0;startSize=0;swimlaneHead=0;swimlaneBody=0;top=0;left=0;bottom=0;right=0;collapsible=0;dropTarget=0;fillColor=none;points=[[0,0.5],[1,0.5]];portConstraint=eastwest;labelBackgroundColor=none;swimlaneLine=0;strokeColor=none;" parent="82" vertex="1">
                    <mxGeometry y="30" width="240" height="26" as="geometry"/>
                </mxCell>
                <mxCell id="84" value="PK" style="shape=partialRectangle;html=1;whiteSpace=wrap;connectable=0;fillColor=none;top=0;left=0;bottom=0;right=0;overflow=hidden;labelBackgroundColor=none;strokeColor=none;strokeWidth=0;spacing=0;spacingTop=8;spacingLeft=8;spacingRight=8;spacingBottom=6;" parent="83" vertex="1">
                    <mxGeometry width="40" height="26" as="geometry">
                        <mxRectangle width="40" height="26" as="alternateBounds"/>
                    </mxGeometry>
                </mxCell>
                <mxCell id="85" value="id" style="shape=partialRectangle;html=1;whiteSpace=wrap;connectable=0;fillColor=none;top=0;left=0;bottom=0;right=0;overflow=hidden;labelBackgroundColor=none;strokeColor=none;strokeWidth=0;align=left;spacing=0;spacingTop=8;spacingLeft=8;spacingRight=8;spacingBottom=6;" parent="83" vertex="1">
                    <mxGeometry x="40" width="110" height="26" as="geometry">
                        <mxRectangle width="110" height="26" as="alternateBounds"/>
                    </mxGeometry>
                </mxCell>
                <mxCell id="86" value="BINARY(16)" style="shape=partialRectangle;html=1;whiteSpace=wrap;connectable=0;fillColor=none;top=0;left=0;bottom=0;right=0;overflow=hidden;labelBackgroundColor=none;strokeColor=none;strokeWidth=0;align=left;spacing=0;spacingTop=8;spacingLeft=8;spacingRight=8;spacingBottom=6;" parent="83" vertex="1">
                    <mxGeometry x="150" width="90" height="26" as="geometry">
                        <mxRectangle width="90" height="26" as="alternateBounds"/>
                    </mxGeometry>
                </mxCell>
                <mxCell id="87" style="shape=tableRow;horizontal=0;startSize=0;swimlaneHead=0;swimlaneBody=0;top=0;left=0;bottom=0;right=0;collapsible=0;dropTarget=0;fillColor=none;points=[[0,0.5],[1,0.5]];portConstraint=eastwest;labelBackgroundColor=none;" parent="82" vertex="1">
                    <mxGeometry y="56" width="240" height="27" as="geometry"/>
                </mxCell>
                <mxCell id="88" value="" style="shape=partialRectangle;html=1;whiteSpace=wrap;connectable=0;fillColor=none;top=0;left=0;bottom=0;right=0;overflow=hidden;labelBackgroundColor=none;strokeColor=none;strokeWidth=0;spacing=0;spacingTop=8;spacingLeft=8;spacingRight=8;spacingBottom=6;" parent="87" vertex="1">
                    <mxGeometry width="40" height="27" as="geometry">
                        <mxRectangle width="40" height="27" as="alternateBounds"/>
                    </mxGeometry>
                </mxCell>
                <mxCell id="89" value="name" style="shape=partialRectangle;html=1;whiteSpace=wrap;connectable=0;fillColor=none;top=0;left=0;bottom=0;right=0;overflow=hidden;labelBackgroundColor=none;strokeColor=none;strokeWidth=0;spacing=0;spacingTop=8;spacingLeft=8;spacingRight=8;spacingBottom=6;align=left;" parent="87" vertex="1">
                    <mxGeometry x="40" width="110" height="27" as="geometry">
                        <mxRectangle width="110" height="27" as="alternateBounds"/>
                    </mxGeometry>
                </mxCell>
                <mxCell id="90" value="VARCHAR" style="shape=partialRectangle;html=1;whiteSpace=wrap;connectable=0;fillColor=none;top=0;left=0;bottom=0;right=0;overflow=hidden;labelBackgroundColor=none;strokeColor=none;strokeWidth=0;spacing=0;spacingTop=8;spacingLeft=8;spacingRight=8;spacingBottom=6;align=left;" parent="87" vertex="1">
                    <mxGeometry x="150" width="90" height="27" as="geometry">
                        <mxRectangle width="90" height="27" as="alternateBounds"/>
                    </mxGeometry>
                </mxCell>
                <mxCell id="91" style="shape=tableRow;horizontal=0;startSize=0;swimlaneHead=0;swimlaneBody=0;top=0;left=0;bottom=0;right=0;collapsible=0;dropTarget=0;fillColor=none;points=[[0,0.5],[1,0.5]];portConstraint=eastwest;labelBackgroundColor=none;" parent="82" vertex="1">
                    <mxGeometry y="83" width="240" height="28" as="geometry"/>
                </mxCell>
                <mxCell id="92" style="shape=partialRectangle;html=1;whiteSpace=wrap;connectable=0;fillColor=none;top=0;left=0;bottom=0;right=0;overflow=hidden;labelBackgroundColor=none;strokeColor=none;strokeWidth=0;spacing=0;spacingTop=8;spacingLeft=8;spacingRight=8;spacingBottom=6;" parent="91" vertex="1">
                    <mxGeometry width="40" height="28" as="geometry">
                        <mxRectangle width="40" height="28" as="alternateBounds"/>
                    </mxGeometry>
                </mxCell>
                <mxCell id="93" value="date" style="shape=partialRectangle;html=1;whiteSpace=wrap;connectable=0;fillColor=none;top=0;left=0;bottom=0;right=0;overflow=hidden;labelBackgroundColor=none;strokeColor=none;strokeWidth=0;spacing=0;spacingTop=8;spacingLeft=8;spacingRight=8;spacingBottom=6;align=left;" parent="91" vertex="1">
                    <mxGeometry x="40" width="110" height="28" as="geometry">
                        <mxRectangle width="110" height="28" as="alternateBounds"/>
                    </mxGeometry>
                </mxCell>
                <mxCell id="94" value="DATETIME" style="shape=partialRectangle;html=1;whiteSpace=wrap;connectable=0;fillColor=none;top=0;left=0;bottom=0;right=0;overflow=hidden;labelBackgroundColor=none;strokeColor=none;strokeWidth=0;spacing=0;spacingTop=8;spacingLeft=8;spacingRight=8;spacingBottom=6;align=left;" parent="91" vertex="1">
                    <mxGeometry x="150" width="90" height="28" as="geometry">
                        <mxRectangle width="90" height="28" as="alternateBounds"/>
                    </mxGeometry>
                </mxCell>
                <mxCell id="99" style="shape=tableRow;horizontal=0;startSize=0;swimlaneHead=0;swimlaneBody=0;top=0;left=0;bottom=0;right=0;collapsible=0;dropTarget=0;fillColor=none;points=[[0,0.5],[1,0.5]];portConstraint=eastwest;labelBackgroundColor=none;" parent="82" vertex="1">
                    <mxGeometry y="111" width="240" height="27" as="geometry"/>
                </mxCell>
                <mxCell id="100" style="shape=partialRectangle;html=1;whiteSpace=wrap;connectable=0;fillColor=none;top=0;left=0;bottom=0;right=0;overflow=hidden;labelBackgroundColor=none;strokeColor=none;strokeWidth=0;spacing=0;spacingTop=8;spacingLeft=8;spacingRight=8;spacingBottom=6;" parent="99" vertex="1">
                    <mxGeometry width="40" height="27" as="geometry">
                        <mxRectangle width="40" height="27" as="alternateBounds"/>
                    </mxGeometry>
                </mxCell>
                <mxCell id="101" value="createdAt" style="shape=partialRectangle;html=1;whiteSpace=wrap;connectable=0;fillColor=none;top=0;left=0;bottom=0;right=0;overflow=hidden;labelBackgroundColor=none;strokeColor=none;strokeWidth=0;spacing=0;spacingTop=8;spacingLeft=8;spacingRight=8;spacingBottom=6;align=left;" parent="99" vertex="1">
                    <mxGeometry x="40" width="110" height="27" as="geometry">
                        <mxRectangle width="110" height="27" as="alternateBounds"/>
                    </mxGeometry>
                </mxCell>
                <mxCell id="102" value="DATETIME" style="shape=partialRectangle;html=1;whiteSpace=wrap;connectable=0;fillColor=none;top=0;left=0;bottom=0;right=0;overflow=hidden;labelBackgroundColor=none;strokeColor=none;strokeWidth=0;spacing=0;spacingTop=8;spacingLeft=8;spacingRight=8;spacingBottom=6;align=left;" parent="99" vertex="1">
                    <mxGeometry x="150" width="90" height="27" as="geometry">
                        <mxRectangle width="90" height="27" as="alternateBounds"/>
                    </mxGeometry>
                </mxCell>
                <mxCell id="103" style="shape=tableRow;horizontal=0;startSize=0;swimlaneHead=0;swimlaneBody=0;top=0;left=0;bottom=0;right=0;collapsible=0;dropTarget=0;fillColor=none;points=[[0,0.5],[1,0.5]];portConstraint=eastwest;labelBackgroundColor=none;" parent="82" vertex="1">
                    <mxGeometry y="138" width="240" height="28" as="geometry"/>
                </mxCell>
                <mxCell id="104" style="shape=partialRectangle;html=1;whiteSpace=wrap;connectable=0;fillColor=none;top=0;left=0;bottom=0;right=0;overflow=hidden;labelBackgroundColor=none;strokeColor=none;strokeWidth=0;spacing=0;spacingTop=8;spacingLeft=8;spacingRight=8;spacingBottom=6;" parent="103" vertex="1">
                    <mxGeometry width="40" height="28" as="geometry">
                        <mxRectangle width="40" height="28" as="alternateBounds"/>
                    </mxGeometry>
                </mxCell>
                <mxCell id="105" value="updatedAt" style="shape=partialRectangle;html=1;whiteSpace=wrap;connectable=0;fillColor=none;top=0;left=0;bottom=0;right=0;overflow=hidden;labelBackgroundColor=none;strokeColor=none;strokeWidth=0;spacing=0;spacingTop=8;spacingLeft=8;spacingRight=8;spacingBottom=6;align=left;" parent="103" vertex="1">
                    <mxGeometry x="40" width="110" height="28" as="geometry">
                        <mxRectangle width="110" height="28" as="alternateBounds"/>
                    </mxGeometry>
                </mxCell>
                <mxCell id="106" value="DATETIME" style="shape=partialRectangle;html=1;whiteSpace=wrap;connectable=0;fillColor=none;top=0;left=0;bottom=0;right=0;overflow=hidden;labelBackgroundColor=none;strokeColor=none;strokeWidth=0;spacing=0;spacingTop=8;spacingLeft=8;spacingRight=8;spacingBottom=6;align=left;" parent="103" vertex="1">
                    <mxGeometry x="150" width="90" height="28" as="geometry">
                        <mxRectangle width="90" height="28" as="alternateBounds"/>
                    </mxGeometry>
                </mxCell>
                <mxCell id="111" value="Location" style="shape=table;startSize=30;container=1;collapsible=0;childLayout=tableLayout;fontStyle=1;align=left;labelBackgroundColor=none;spacing=6;swimlaneLine=1;" parent="1" vertex="1">
                    <mxGeometry x="550" y="490" width="240" height="306" as="geometry"/>
                </mxCell>
                <mxCell id="112" value="" style="shape=tableRow;horizontal=0;startSize=0;swimlaneHead=0;swimlaneBody=0;top=0;left=0;bottom=0;right=0;collapsible=0;dropTarget=0;fillColor=none;points=[[0,0.5],[1,0.5]];portConstraint=eastwest;labelBackgroundColor=none;swimlaneLine=0;strokeColor=none;" parent="111" vertex="1">
                    <mxGeometry y="30" width="240" height="26" as="geometry"/>
                </mxCell>
                <mxCell id="113" value="PK" style="shape=partialRectangle;html=1;whiteSpace=wrap;connectable=0;fillColor=none;top=0;left=0;bottom=0;right=0;overflow=hidden;labelBackgroundColor=none;strokeColor=none;strokeWidth=0;spacing=0;spacingTop=8;spacingLeft=8;spacingRight=8;spacingBottom=6;" parent="112" vertex="1">
                    <mxGeometry width="40" height="26" as="geometry">
                        <mxRectangle width="40" height="26" as="alternateBounds"/>
                    </mxGeometry>
                </mxCell>
                <mxCell id="114" value="id" style="shape=partialRectangle;html=1;whiteSpace=wrap;connectable=0;fillColor=none;top=0;left=0;bottom=0;right=0;overflow=hidden;labelBackgroundColor=none;strokeColor=none;strokeWidth=0;align=left;spacing=0;spacingTop=8;spacingLeft=8;spacingRight=8;spacingBottom=6;" parent="112" vertex="1">
                    <mxGeometry x="40" width="110" height="26" as="geometry">
                        <mxRectangle width="110" height="26" as="alternateBounds"/>
                    </mxGeometry>
                </mxCell>
                <mxCell id="115" value="BINARY(16)" style="shape=partialRectangle;html=1;whiteSpace=wrap;connectable=0;fillColor=none;top=0;left=0;bottom=0;right=0;overflow=hidden;labelBackgroundColor=none;strokeColor=none;strokeWidth=0;align=left;spacing=0;spacingTop=8;spacingLeft=8;spacingRight=8;spacingBottom=6;" parent="112" vertex="1">
                    <mxGeometry x="150" width="90" height="26" as="geometry">
                        <mxRectangle width="90" height="26" as="alternateBounds"/>
                    </mxGeometry>
                </mxCell>
                <mxCell id="116" value="" style="shape=tableRow;horizontal=0;startSize=0;swimlaneHead=0;swimlaneBody=0;top=0;left=0;bottom=0;right=0;collapsible=0;dropTarget=0;fillColor=none;points=[[0,0.5],[1,0.5]];portConstraint=eastwest;labelBackgroundColor=none;" parent="111" vertex="1">
                    <mxGeometry y="56" width="240" height="28" as="geometry"/>
                </mxCell>
                <mxCell id="117" value="FK" style="shape=partialRectangle;html=1;whiteSpace=wrap;connectable=0;fillColor=none;top=0;left=0;bottom=0;right=0;overflow=hidden;labelBackgroundColor=none;strokeColor=none;strokeWidth=0;spacing=0;spacingTop=8;spacingLeft=8;spacingRight=8;spacingBottom=6;" parent="116" vertex="1">
                    <mxGeometry width="40" height="28" as="geometry">
                        <mxRectangle width="40" height="28" as="alternateBounds"/>
                    </mxGeometry>
                </mxCell>
                <mxCell id="118" value="meetingId" style="shape=partialRectangle;html=1;whiteSpace=wrap;connectable=0;fillColor=none;top=0;left=0;bottom=0;right=0;overflow=hidden;labelBackgroundColor=none;strokeColor=none;strokeWidth=0;spacing=0;spacingTop=8;spacingLeft=8;spacingRight=8;spacingBottom=6;align=left;" parent="116" vertex="1">
                    <mxGeometry x="40" width="110" height="28" as="geometry">
                        <mxRectangle width="110" height="28" as="alternateBounds"/>
                    </mxGeometry>
                </mxCell>
                <mxCell id="119" value="BINARY(16)" style="shape=partialRectangle;html=1;whiteSpace=wrap;connectable=0;fillColor=none;top=0;left=0;bottom=0;right=0;overflow=hidden;labelBackgroundColor=none;strokeColor=none;strokeWidth=0;spacing=0;spacingTop=8;spacingLeft=8;spacingRight=8;spacingBottom=6;align=left;" parent="116" vertex="1">
                    <mxGeometry x="150" width="90" height="28" as="geometry">
                        <mxRectangle width="90" height="28" as="alternateBounds"/>
                    </mxGeometry>
                </mxCell>
                <mxCell id="120" style="shape=tableRow;horizontal=0;startSize=0;swimlaneHead=0;swimlaneBody=0;top=0;left=0;bottom=0;right=0;collapsible=0;dropTarget=0;fillColor=none;points=[[0,0.5],[1,0.5]];portConstraint=eastwest;labelBackgroundColor=none;" parent="111" vertex="1">
                    <mxGeometry y="84" width="240" height="27" as="geometry"/>
                </mxCell>
                <mxCell id="121" value="" style="shape=partialRectangle;html=1;whiteSpace=wrap;connectable=0;fillColor=none;top=0;left=0;bottom=0;right=0;overflow=hidden;labelBackgroundColor=none;strokeColor=none;strokeWidth=0;spacing=0;spacingTop=8;spacingLeft=8;spacingRight=8;spacingBottom=6;" parent="120" vertex="1">
                    <mxGeometry width="40" height="27" as="geometry">
                        <mxRectangle width="40" height="27" as="alternateBounds"/>
                    </mxGeometry>
                </mxCell>
                <mxCell id="122" value="name" style="shape=partialRectangle;html=1;whiteSpace=wrap;connectable=0;fillColor=none;top=0;left=0;bottom=0;right=0;overflow=hidden;labelBackgroundColor=none;strokeColor=none;strokeWidth=0;spacing=0;spacingTop=8;spacingLeft=8;spacingRight=8;spacingBottom=6;align=left;" parent="120" vertex="1">
                    <mxGeometry x="40" width="110" height="27" as="geometry">
                        <mxRectangle width="110" height="27" as="alternateBounds"/>
                    </mxGeometry>
                </mxCell>
                <mxCell id="123" value="VARCHAR" style="shape=partialRectangle;html=1;whiteSpace=wrap;connectable=0;fillColor=none;top=0;left=0;bottom=0;right=0;overflow=hidden;labelBackgroundColor=none;strokeColor=none;strokeWidth=0;spacing=0;spacingTop=8;spacingLeft=8;spacingRight=8;spacingBottom=6;align=left;" parent="120" vertex="1">
                    <mxGeometry x="150" width="90" height="27" as="geometry">
                        <mxRectangle width="90" height="27" as="alternateBounds"/>
                    </mxGeometry>
                </mxCell>
                <mxCell id="124" style="shape=tableRow;horizontal=0;startSize=0;swimlaneHead=0;swimlaneBody=0;top=0;left=0;bottom=0;right=0;collapsible=0;dropTarget=0;fillColor=none;points=[[0,0.5],[1,0.5]];portConstraint=eastwest;labelBackgroundColor=none;" parent="111" vertex="1">
                    <mxGeometry y="111" width="240" height="28" as="geometry"/>
                </mxCell>
                <mxCell id="125" style="shape=partialRectangle;html=1;whiteSpace=wrap;connectable=0;fillColor=none;top=0;left=0;bottom=0;right=0;overflow=hidden;labelBackgroundColor=none;strokeColor=none;strokeWidth=0;spacing=0;spacingTop=8;spacingLeft=8;spacingRight=8;spacingBottom=6;" parent="124" vertex="1">
                    <mxGeometry width="40" height="28" as="geometry">
                        <mxRectangle width="40" height="28" as="alternateBounds"/>
                    </mxGeometry>
                </mxCell>
                <mxCell id="126" value="address_street" style="shape=partialRectangle;html=1;whiteSpace=wrap;connectable=0;fillColor=none;top=0;left=0;bottom=0;right=0;overflow=hidden;labelBackgroundColor=none;strokeColor=none;strokeWidth=0;spacing=0;spacingTop=8;spacingLeft=8;spacingRight=8;spacingBottom=6;align=left;" parent="124" vertex="1">
                    <mxGeometry x="40" width="110" height="28" as="geometry">
                        <mxRectangle width="110" height="28" as="alternateBounds"/>
                    </mxGeometry>
                </mxCell>
                <mxCell id="127" value="VARCHAR" style="shape=partialRectangle;html=1;whiteSpace=wrap;connectable=0;fillColor=none;top=0;left=0;bottom=0;right=0;overflow=hidden;labelBackgroundColor=none;strokeColor=none;strokeWidth=0;spacing=0;spacingTop=8;spacingLeft=8;spacingRight=8;spacingBottom=6;align=left;" parent="124" vertex="1">
                    <mxGeometry x="150" width="90" height="28" as="geometry">
                        <mxRectangle width="90" height="28" as="alternateBounds"/>
                    </mxGeometry>
                </mxCell>
                <mxCell id="148" style="shape=tableRow;horizontal=0;startSize=0;swimlaneHead=0;swimlaneBody=0;top=0;left=0;bottom=0;right=0;collapsible=0;dropTarget=0;fillColor=none;points=[[0,0.5],[1,0.5]];portConstraint=eastwest;labelBackgroundColor=none;" parent="111" vertex="1">
                    <mxGeometry y="139" width="240" height="28" as="geometry"/>
                </mxCell>
                <mxCell id="149" style="shape=partialRectangle;html=1;whiteSpace=wrap;connectable=0;fillColor=none;top=0;left=0;bottom=0;right=0;overflow=hidden;labelBackgroundColor=none;strokeColor=none;strokeWidth=0;spacing=0;spacingTop=8;spacingLeft=8;spacingRight=8;spacingBottom=6;" parent="148" vertex="1">
                    <mxGeometry width="40" height="28" as="geometry">
                        <mxRectangle width="40" height="28" as="alternateBounds"/>
                    </mxGeometry>
                </mxCell>
                <mxCell id="150" value="address_city" style="shape=partialRectangle;html=1;whiteSpace=wrap;connectable=0;fillColor=none;top=0;left=0;bottom=0;right=0;overflow=hidden;labelBackgroundColor=none;strokeColor=none;strokeWidth=0;spacing=0;spacingTop=8;spacingLeft=8;spacingRight=8;spacingBottom=6;align=left;" parent="148" vertex="1">
                    <mxGeometry x="40" width="110" height="28" as="geometry">
                        <mxRectangle width="110" height="28" as="alternateBounds"/>
                    </mxGeometry>
                </mxCell>
                <mxCell id="151" value="VARCHAR" style="shape=partialRectangle;html=1;whiteSpace=wrap;connectable=0;fillColor=none;top=0;left=0;bottom=0;right=0;overflow=hidden;labelBackgroundColor=none;strokeColor=none;strokeWidth=0;spacing=0;spacingTop=8;spacingLeft=8;spacingRight=8;spacingBottom=6;align=left;" parent="148" vertex="1">
                    <mxGeometry x="150" width="90" height="28" as="geometry">
                        <mxRectangle width="90" height="28" as="alternateBounds"/>
                    </mxGeometry>
                </mxCell>
                <mxCell id="144" style="shape=tableRow;horizontal=0;startSize=0;swimlaneHead=0;swimlaneBody=0;top=0;left=0;bottom=0;right=0;collapsible=0;dropTarget=0;fillColor=none;points=[[0,0.5],[1,0.5]];portConstraint=eastwest;labelBackgroundColor=none;" parent="111" vertex="1">
                    <mxGeometry y="167" width="240" height="28" as="geometry"/>
                </mxCell>
                <mxCell id="145" style="shape=partialRectangle;html=1;whiteSpace=wrap;connectable=0;fillColor=none;top=0;left=0;bottom=0;right=0;overflow=hidden;labelBackgroundColor=none;strokeColor=none;strokeWidth=0;spacing=0;spacingTop=8;spacingLeft=8;spacingRight=8;spacingBottom=6;" parent="144" vertex="1">
                    <mxGeometry width="40" height="28" as="geometry">
                        <mxRectangle width="40" height="28" as="alternateBounds"/>
                    </mxGeometry>
                </mxCell>
                <mxCell id="146" value="address_state" style="shape=partialRectangle;html=1;whiteSpace=wrap;connectable=0;fillColor=none;top=0;left=0;bottom=0;right=0;overflow=hidden;labelBackgroundColor=none;strokeColor=none;strokeWidth=0;spacing=0;spacingTop=8;spacingLeft=8;spacingRight=8;spacingBottom=6;align=left;" parent="144" vertex="1">
                    <mxGeometry x="40" width="110" height="28" as="geometry">
                        <mxRectangle width="110" height="28" as="alternateBounds"/>
                    </mxGeometry>
                </mxCell>
                <mxCell id="147" value="VARCHAR" style="shape=partialRectangle;html=1;whiteSpace=wrap;connectable=0;fillColor=none;top=0;left=0;bottom=0;right=0;overflow=hidden;labelBackgroundColor=none;strokeColor=none;strokeWidth=0;spacing=0;spacingTop=8;spacingLeft=8;spacingRight=8;spacingBottom=6;align=left;" parent="144" vertex="1">
                    <mxGeometry x="150" width="90" height="28" as="geometry">
                        <mxRectangle width="90" height="28" as="alternateBounds"/>
                    </mxGeometry>
                </mxCell>
                <mxCell id="140" style="shape=tableRow;horizontal=0;startSize=0;swimlaneHead=0;swimlaneBody=0;top=0;left=0;bottom=0;right=0;collapsible=0;dropTarget=0;fillColor=none;points=[[0,0.5],[1,0.5]];portConstraint=eastwest;labelBackgroundColor=none;" parent="111" vertex="1">
                    <mxGeometry y="195" width="240" height="28" as="geometry"/>
                </mxCell>
                <mxCell id="141" style="shape=partialRectangle;html=1;whiteSpace=wrap;connectable=0;fillColor=none;top=0;left=0;bottom=0;right=0;overflow=hidden;labelBackgroundColor=none;strokeColor=none;strokeWidth=0;spacing=0;spacingTop=8;spacingLeft=8;spacingRight=8;spacingBottom=6;" parent="140" vertex="1">
                    <mxGeometry width="40" height="28" as="geometry">
                        <mxRectangle width="40" height="28" as="alternateBounds"/>
                    </mxGeometry>
                </mxCell>
                <mxCell id="142" value="address_zip" style="shape=partialRectangle;html=1;whiteSpace=wrap;connectable=0;fillColor=none;top=0;left=0;bottom=0;right=0;overflow=hidden;labelBackgroundColor=none;strokeColor=none;strokeWidth=0;spacing=0;spacingTop=8;spacingLeft=8;spacingRight=8;spacingBottom=6;align=left;" parent="140" vertex="1">
                    <mxGeometry x="40" width="110" height="28" as="geometry">
                        <mxRectangle width="110" height="28" as="alternateBounds"/>
                    </mxGeometry>
                </mxCell>
                <mxCell id="143" value="VARCHAR" style="shape=partialRectangle;html=1;whiteSpace=wrap;connectable=0;fillColor=none;top=0;left=0;bottom=0;right=0;overflow=hidden;labelBackgroundColor=none;strokeColor=none;strokeWidth=0;spacing=0;spacingTop=8;spacingLeft=8;spacingRight=8;spacingBottom=6;align=left;" parent="140" vertex="1">
                    <mxGeometry x="150" width="90" height="28" as="geometry">
                        <mxRectangle width="90" height="28" as="alternateBounds"/>
                    </mxGeometry>
                </mxCell>
                <mxCell id="136" style="shape=tableRow;horizontal=0;startSize=0;swimlaneHead=0;swimlaneBody=0;top=0;left=0;bottom=0;right=0;collapsible=0;dropTarget=0;fillColor=none;points=[[0,0.5],[1,0.5]];portConstraint=eastwest;labelBackgroundColor=none;" parent="111" vertex="1">
                    <mxGeometry y="223" width="240" height="28" as="geometry"/>
                </mxCell>
                <mxCell id="137" style="shape=partialRectangle;html=1;whiteSpace=wrap;connectable=0;fillColor=none;top=0;left=0;bottom=0;right=0;overflow=hidden;labelBackgroundColor=none;strokeColor=none;strokeWidth=0;spacing=0;spacingTop=8;spacingLeft=8;spacingRight=8;spacingBottom=6;" parent="136" vertex="1">
                    <mxGeometry width="40" height="28" as="geometry">
                        <mxRectangle width="40" height="28" as="alternateBounds"/>
                    </mxGeometry>
                </mxCell>
                <mxCell id="138" value="coordinates" style="shape=partialRectangle;html=1;whiteSpace=wrap;connectable=0;fillColor=none;top=0;left=0;bottom=0;right=0;overflow=hidden;labelBackgroundColor=none;strokeColor=none;strokeWidth=0;spacing=0;spacingTop=8;spacingLeft=8;spacingRight=8;spacingBottom=6;align=left;" parent="136" vertex="1">
                    <mxGeometry x="40" width="110" height="28" as="geometry">
                        <mxRectangle width="110" height="28" as="alternateBounds"/>
                    </mxGeometry>
                </mxCell>
                <mxCell id="139" value="VARCHAR" style="shape=partialRectangle;html=1;whiteSpace=wrap;connectable=0;fillColor=none;top=0;left=0;bottom=0;right=0;overflow=hidden;labelBackgroundColor=none;strokeColor=none;strokeWidth=0;spacing=0;spacingTop=8;spacingLeft=8;spacingRight=8;spacingBottom=6;align=left;" parent="136" vertex="1">
                    <mxGeometry x="150" width="90" height="28" as="geometry">
                        <mxRectangle width="90" height="28" as="alternateBounds"/>
                    </mxGeometry>
                </mxCell>
                <mxCell id="128" style="shape=tableRow;horizontal=0;startSize=0;swimlaneHead=0;swimlaneBody=0;top=0;left=0;bottom=0;right=0;collapsible=0;dropTarget=0;fillColor=none;points=[[0,0.5],[1,0.5]];portConstraint=eastwest;labelBackgroundColor=none;" parent="111" vertex="1">
                    <mxGeometry y="251" width="240" height="27" as="geometry"/>
                </mxCell>
                <mxCell id="129" style="shape=partialRectangle;html=1;whiteSpace=wrap;connectable=0;fillColor=none;top=0;left=0;bottom=0;right=0;overflow=hidden;labelBackgroundColor=none;strokeColor=none;strokeWidth=0;spacing=0;spacingTop=8;spacingLeft=8;spacingRight=8;spacingBottom=6;" parent="128" vertex="1">
                    <mxGeometry width="40" height="27" as="geometry">
                        <mxRectangle width="40" height="27" as="alternateBounds"/>
                    </mxGeometry>
                </mxCell>
                <mxCell id="130" value="createdAt" style="shape=partialRectangle;html=1;whiteSpace=wrap;connectable=0;fillColor=none;top=0;left=0;bottom=0;right=0;overflow=hidden;labelBackgroundColor=none;strokeColor=none;strokeWidth=0;spacing=0;spacingTop=8;spacingLeft=8;spacingRight=8;spacingBottom=6;align=left;" parent="128" vertex="1">
                    <mxGeometry x="40" width="110" height="27" as="geometry">
                        <mxRectangle width="110" height="27" as="alternateBounds"/>
                    </mxGeometry>
                </mxCell>
                <mxCell id="131" value="DATETIME" style="shape=partialRectangle;html=1;whiteSpace=wrap;connectable=0;fillColor=none;top=0;left=0;bottom=0;right=0;overflow=hidden;labelBackgroundColor=none;strokeColor=none;strokeWidth=0;spacing=0;spacingTop=8;spacingLeft=8;spacingRight=8;spacingBottom=6;align=left;" parent="128" vertex="1">
                    <mxGeometry x="150" width="90" height="27" as="geometry">
                        <mxRectangle width="90" height="27" as="alternateBounds"/>
                    </mxGeometry>
                </mxCell>
                <mxCell id="132" style="shape=tableRow;horizontal=0;startSize=0;swimlaneHead=0;swimlaneBody=0;top=0;left=0;bottom=0;right=0;collapsible=0;dropTarget=0;fillColor=none;points=[[0,0.5],[1,0.5]];portConstraint=eastwest;labelBackgroundColor=none;" parent="111" vertex="1">
                    <mxGeometry y="278" width="240" height="28" as="geometry"/>
                </mxCell>
                <mxCell id="133" style="shape=partialRectangle;html=1;whiteSpace=wrap;connectable=0;fillColor=none;top=0;left=0;bottom=0;right=0;overflow=hidden;labelBackgroundColor=none;strokeColor=none;strokeWidth=0;spacing=0;spacingTop=8;spacingLeft=8;spacingRight=8;spacingBottom=6;" parent="132" vertex="1">
                    <mxGeometry width="40" height="28" as="geometry">
                        <mxRectangle width="40" height="28" as="alternateBounds"/>
                    </mxGeometry>
                </mxCell>
                <mxCell id="134" value="updatedAt" style="shape=partialRectangle;html=1;whiteSpace=wrap;connectable=0;fillColor=none;top=0;left=0;bottom=0;right=0;overflow=hidden;labelBackgroundColor=none;strokeColor=none;strokeWidth=0;spacing=0;spacingTop=8;spacingLeft=8;spacingRight=8;spacingBottom=6;align=left;" parent="132" vertex="1">
                    <mxGeometry x="40" width="110" height="28" as="geometry">
                        <mxRectangle width="110" height="28" as="alternateBounds"/>
                    </mxGeometry>
                </mxCell>
                <mxCell id="135" value="DATETIME" style="shape=partialRectangle;html=1;whiteSpace=wrap;connectable=0;fillColor=none;top=0;left=0;bottom=0;right=0;overflow=hidden;labelBackgroundColor=none;strokeColor=none;strokeWidth=0;spacing=0;spacingTop=8;spacingLeft=8;spacingRight=8;spacingBottom=6;align=left;" parent="132" vertex="1">
                    <mxGeometry x="150" width="90" height="28" as="geometry">
                        <mxRectangle width="90" height="28" as="alternateBounds"/>
                    </mxGeometry>
                </mxCell>
                <mxCell id="152" value="UserRelationship" style="shape=table;startSize=30;container=1;collapsible=0;childLayout=tableLayout;fontStyle=1;align=left;labelBackgroundColor=none;spacing=6;swimlaneLine=1;" vertex="1" parent="1">
                    <mxGeometry x="190" y="360" width="240" height="166" as="geometry"/>
                </mxCell>
                <mxCell id="153" value="" style="shape=tableRow;horizontal=0;startSize=0;swimlaneHead=0;swimlaneBody=0;top=0;left=0;bottom=0;right=0;collapsible=0;dropTarget=0;fillColor=none;points=[[0,0.5],[1,0.5]];portConstraint=eastwest;labelBackgroundColor=none;swimlaneLine=0;strokeColor=none;" vertex="1" parent="152">
                    <mxGeometry y="30" width="240" height="26" as="geometry"/>
                </mxCell>
                <mxCell id="154" value="PK" style="shape=partialRectangle;html=1;whiteSpace=wrap;connectable=0;fillColor=none;top=0;left=0;bottom=0;right=0;overflow=hidden;labelBackgroundColor=none;strokeColor=none;strokeWidth=0;spacing=0;spacingTop=8;spacingLeft=8;spacingRight=8;spacingBottom=6;" vertex="1" parent="153">
                    <mxGeometry width="40" height="26" as="geometry">
                        <mxRectangle width="40" height="26" as="alternateBounds"/>
                    </mxGeometry>
                </mxCell>
                <mxCell id="155" value="id" style="shape=partialRectangle;html=1;whiteSpace=wrap;connectable=0;fillColor=none;top=0;left=0;bottom=0;right=0;overflow=hidden;labelBackgroundColor=none;strokeColor=none;strokeWidth=0;align=left;spacing=0;spacingTop=8;spacingLeft=8;spacingRight=8;spacingBottom=6;" vertex="1" parent="153">
                    <mxGeometry x="40" width="110" height="26" as="geometry">
                        <mxRectangle width="110" height="26" as="alternateBounds"/>
                    </mxGeometry>
                </mxCell>
                <mxCell id="156" value="BINARY(16)" style="shape=partialRectangle;html=1;whiteSpace=wrap;connectable=0;fillColor=none;top=0;left=0;bottom=0;right=0;overflow=hidden;labelBackgroundColor=none;strokeColor=none;strokeWidth=0;align=left;spacing=0;spacingTop=8;spacingLeft=8;spacingRight=8;spacingBottom=6;" vertex="1" parent="153">
                    <mxGeometry x="150" width="90" height="26" as="geometry">
                        <mxRectangle width="90" height="26" as="alternateBounds"/>
                    </mxGeometry>
                </mxCell>
                <mxCell id="157" value="" style="shape=tableRow;horizontal=0;startSize=0;swimlaneHead=0;swimlaneBody=0;top=0;left=0;bottom=0;right=0;collapsible=0;dropTarget=0;fillColor=none;points=[[0,0.5],[1,0.5]];portConstraint=eastwest;labelBackgroundColor=none;" vertex="1" parent="152">
                    <mxGeometry y="56" width="240" height="28" as="geometry"/>
                </mxCell>
                <mxCell id="158" value="FK" style="shape=partialRectangle;html=1;whiteSpace=wrap;connectable=0;fillColor=none;top=0;left=0;bottom=0;right=0;overflow=hidden;labelBackgroundColor=none;strokeColor=none;strokeWidth=0;spacing=0;spacingTop=8;spacingLeft=8;spacingRight=8;spacingBottom=6;" vertex="1" parent="157">
                    <mxGeometry width="40" height="28" as="geometry">
                        <mxRectangle width="40" height="28" as="alternateBounds"/>
                    </mxGeometry>
                </mxCell>
                <mxCell id="159" value="userId" style="shape=partialRectangle;html=1;whiteSpace=wrap;connectable=0;fillColor=none;top=0;left=0;bottom=0;right=0;overflow=hidden;labelBackgroundColor=none;strokeColor=none;strokeWidth=0;spacing=0;spacingTop=8;spacingLeft=8;spacingRight=8;spacingBottom=6;align=left;" vertex="1" parent="157">
                    <mxGeometry x="40" width="110" height="28" as="geometry">
                        <mxRectangle width="110" height="28" as="alternateBounds"/>
                    </mxGeometry>
                </mxCell>
                <mxCell id="160" value="BINARY(16)" style="shape=partialRectangle;html=1;whiteSpace=wrap;connectable=0;fillColor=none;top=0;left=0;bottom=0;right=0;overflow=hidden;labelBackgroundColor=none;strokeColor=none;strokeWidth=0;spacing=0;spacingTop=8;spacingLeft=8;spacingRight=8;spacingBottom=6;align=left;" vertex="1" parent="157">
                    <mxGeometry x="150" width="90" height="28" as="geometry">
                        <mxRectangle width="90" height="28" as="alternateBounds"/>
                    </mxGeometry>
                </mxCell>
                <mxCell id="161" style="shape=tableRow;horizontal=0;startSize=0;swimlaneHead=0;swimlaneBody=0;top=0;left=0;bottom=0;right=0;collapsible=0;dropTarget=0;fillColor=none;points=[[0,0.5],[1,0.5]];portConstraint=eastwest;labelBackgroundColor=none;" vertex="1" parent="152">
                    <mxGeometry y="84" width="240" height="27" as="geometry"/>
                </mxCell>
                <mxCell id="162" value="FK" style="shape=partialRectangle;html=1;whiteSpace=wrap;connectable=0;fillColor=none;top=0;left=0;bottom=0;right=0;overflow=hidden;labelBackgroundColor=none;strokeColor=none;strokeWidth=0;spacing=0;spacingTop=8;spacingLeft=8;spacingRight=8;spacingBottom=6;" vertex="1" parent="161">
                    <mxGeometry width="40" height="27" as="geometry">
                        <mxRectangle width="40" height="27" as="alternateBounds"/>
                    </mxGeometry>
                </mxCell>
                <mxCell id="163" value="friendId" style="shape=partialRectangle;html=1;whiteSpace=wrap;connectable=0;fillColor=none;top=0;left=0;bottom=0;right=0;overflow=hidden;labelBackgroundColor=none;strokeColor=none;strokeWidth=0;spacing=0;spacingTop=8;spacingLeft=8;spacingRight=8;spacingBottom=6;align=left;" vertex="1" parent="161">
                    <mxGeometry x="40" width="110" height="27" as="geometry">
                        <mxRectangle width="110" height="27" as="alternateBounds"/>
                    </mxGeometry>
                </mxCell>
                <mxCell id="164" value="BINARY(16)" style="shape=partialRectangle;html=1;whiteSpace=wrap;connectable=0;fillColor=none;top=0;left=0;bottom=0;right=0;overflow=hidden;labelBackgroundColor=none;strokeColor=none;strokeWidth=0;spacing=0;spacingTop=8;spacingLeft=8;spacingRight=8;spacingBottom=6;align=left;" vertex="1" parent="161">
                    <mxGeometry x="150" width="90" height="27" as="geometry">
                        <mxRectangle width="90" height="27" as="alternateBounds"/>
                    </mxGeometry>
                </mxCell>
                <mxCell id="169" style="shape=tableRow;horizontal=0;startSize=0;swimlaneHead=0;swimlaneBody=0;top=0;left=0;bottom=0;right=0;collapsible=0;dropTarget=0;fillColor=none;points=[[0,0.5],[1,0.5]];portConstraint=eastwest;labelBackgroundColor=none;" vertex="1" parent="152">
                    <mxGeometry y="111" width="240" height="27" as="geometry"/>
                </mxCell>
                <mxCell id="170" style="shape=partialRectangle;html=1;whiteSpace=wrap;connectable=0;fillColor=none;top=0;left=0;bottom=0;right=0;overflow=hidden;labelBackgroundColor=none;strokeColor=none;strokeWidth=0;spacing=0;spacingTop=8;spacingLeft=8;spacingRight=8;spacingBottom=6;" vertex="1" parent="169">
                    <mxGeometry width="40" height="27" as="geometry">
                        <mxRectangle width="40" height="27" as="alternateBounds"/>
                    </mxGeometry>
                </mxCell>
                <mxCell id="171" value="createdAt" style="shape=partialRectangle;html=1;whiteSpace=wrap;connectable=0;fillColor=none;top=0;left=0;bottom=0;right=0;overflow=hidden;labelBackgroundColor=none;strokeColor=none;strokeWidth=0;spacing=0;spacingTop=8;spacingLeft=8;spacingRight=8;spacingBottom=6;align=left;" vertex="1" parent="169">
                    <mxGeometry x="40" width="110" height="27" as="geometry">
                        <mxRectangle width="110" height="27" as="alternateBounds"/>
                    </mxGeometry>
                </mxCell>
                <mxCell id="172" value="DATETIME" style="shape=partialRectangle;html=1;whiteSpace=wrap;connectable=0;fillColor=none;top=0;left=0;bottom=0;right=0;overflow=hidden;labelBackgroundColor=none;strokeColor=none;strokeWidth=0;spacing=0;spacingTop=8;spacingLeft=8;spacingRight=8;spacingBottom=6;align=left;" vertex="1" parent="169">
                    <mxGeometry x="150" width="90" height="27" as="geometry">
                        <mxRectangle width="90" height="27" as="alternateBounds"/>
                    </mxGeometry>
                </mxCell>
                <mxCell id="173" style="shape=tableRow;horizontal=0;startSize=0;swimlaneHead=0;swimlaneBody=0;top=0;left=0;bottom=0;right=0;collapsible=0;dropTarget=0;fillColor=none;points=[[0,0.5],[1,0.5]];portConstraint=eastwest;labelBackgroundColor=none;" vertex="1" parent="152">
                    <mxGeometry y="138" width="240" height="28" as="geometry"/>
                </mxCell>
                <mxCell id="174" style="shape=partialRectangle;html=1;whiteSpace=wrap;connectable=0;fillColor=none;top=0;left=0;bottom=0;right=0;overflow=hidden;labelBackgroundColor=none;strokeColor=none;strokeWidth=0;spacing=0;spacingTop=8;spacingLeft=8;spacingRight=8;spacingBottom=6;" vertex="1" parent="173">
                    <mxGeometry width="40" height="28" as="geometry">
                        <mxRectangle width="40" height="28" as="alternateBounds"/>
                    </mxGeometry>
                </mxCell>
                <mxCell id="175" value="updatedAt" style="shape=partialRectangle;html=1;whiteSpace=wrap;connectable=0;fillColor=none;top=0;left=0;bottom=0;right=0;overflow=hidden;labelBackgroundColor=none;strokeColor=none;strokeWidth=0;spacing=0;spacingTop=8;spacingLeft=8;spacingRight=8;spacingBottom=6;align=left;" vertex="1" parent="173">
                    <mxGeometry x="40" width="110" height="28" as="geometry">
                        <mxRectangle width="110" height="28" as="alternateBounds"/>
                    </mxGeometry>
                </mxCell>
                <mxCell id="176" value="DATETIME" style="shape=partialRectangle;html=1;whiteSpace=wrap;connectable=0;fillColor=none;top=0;left=0;bottom=0;right=0;overflow=hidden;labelBackgroundColor=none;strokeColor=none;strokeWidth=0;spacing=0;spacingTop=8;spacingLeft=8;spacingRight=8;spacingBottom=6;align=left;" vertex="1" parent="173">
                    <mxGeometry x="150" width="90" height="28" as="geometry">
                        <mxRectangle width="90" height="28" as="alternateBounds"/>
                    </mxGeometry>
                </mxCell>
                <mxCell id="177" value="UserProfile" style="shape=table;startSize=30;container=1;collapsible=0;childLayout=tableLayout;fontStyle=1;align=left;labelBackgroundColor=none;spacing=6;swimlaneLine=1;" vertex="1" parent="1">
                    <mxGeometry x="190" y="570" width="240" height="222" as="geometry"/>
                </mxCell>
                <mxCell id="178" value="" style="shape=tableRow;horizontal=0;startSize=0;swimlaneHead=0;swimlaneBody=0;top=0;left=0;bottom=0;right=0;collapsible=0;dropTarget=0;fillColor=none;points=[[0,0.5],[1,0.5]];portConstraint=eastwest;labelBackgroundColor=none;swimlaneLine=0;strokeColor=none;" vertex="1" parent="177">
                    <mxGeometry y="30" width="240" height="26" as="geometry"/>
                </mxCell>
                <mxCell id="179" value="PK" style="shape=partialRectangle;html=1;whiteSpace=wrap;connectable=0;fillColor=none;top=0;left=0;bottom=0;right=0;overflow=hidden;labelBackgroundColor=none;strokeColor=none;strokeWidth=0;spacing=0;spacingTop=8;spacingLeft=8;spacingRight=8;spacingBottom=6;" vertex="1" parent="178">
                    <mxGeometry width="40" height="26" as="geometry">
                        <mxRectangle width="40" height="26" as="alternateBounds"/>
                    </mxGeometry>
                </mxCell>
                <mxCell id="180" value="id" style="shape=partialRectangle;html=1;whiteSpace=wrap;connectable=0;fillColor=none;top=0;left=0;bottom=0;right=0;overflow=hidden;labelBackgroundColor=none;strokeColor=none;strokeWidth=0;align=left;spacing=0;spacingTop=8;spacingLeft=8;spacingRight=8;spacingBottom=6;" vertex="1" parent="178">
                    <mxGeometry x="40" width="110" height="26" as="geometry">
                        <mxRectangle width="110" height="26" as="alternateBounds"/>
                    </mxGeometry>
                </mxCell>
                <mxCell id="181" value="BINARY(16)" style="shape=partialRectangle;html=1;whiteSpace=wrap;connectable=0;fillColor=none;top=0;left=0;bottom=0;right=0;overflow=hidden;labelBackgroundColor=none;strokeColor=none;strokeWidth=0;align=left;spacing=0;spacingTop=8;spacingLeft=8;spacingRight=8;spacingBottom=6;" vertex="1" parent="178">
                    <mxGeometry x="150" width="90" height="26" as="geometry">
                        <mxRectangle width="90" height="26" as="alternateBounds"/>
                    </mxGeometry>
                </mxCell>
                <mxCell id="182" value="" style="shape=tableRow;horizontal=0;startSize=0;swimlaneHead=0;swimlaneBody=0;top=0;left=0;bottom=0;right=0;collapsible=0;dropTarget=0;fillColor=none;points=[[0,0.5],[1,0.5]];portConstraint=eastwest;labelBackgroundColor=none;" vertex="1" parent="177">
                    <mxGeometry y="56" width="240" height="28" as="geometry"/>
                </mxCell>
                <mxCell id="183" value="FK" style="shape=partialRectangle;html=1;whiteSpace=wrap;connectable=0;fillColor=none;top=0;left=0;bottom=0;right=0;overflow=hidden;labelBackgroundColor=none;strokeColor=none;strokeWidth=0;spacing=0;spacingTop=8;spacingLeft=8;spacingRight=8;spacingBottom=6;" vertex="1" parent="182">
                    <mxGeometry width="40" height="28" as="geometry">
                        <mxRectangle width="40" height="28" as="alternateBounds"/>
                    </mxGeometry>
                </mxCell>
                <mxCell id="184" value="userId" style="shape=partialRectangle;html=1;whiteSpace=wrap;connectable=0;fillColor=none;top=0;left=0;bottom=0;right=0;overflow=hidden;labelBackgroundColor=none;strokeColor=none;strokeWidth=0;spacing=0;spacingTop=8;spacingLeft=8;spacingRight=8;spacingBottom=6;align=left;" vertex="1" parent="182">
                    <mxGeometry x="40" width="110" height="28" as="geometry">
                        <mxRectangle width="110" height="28" as="alternateBounds"/>
                    </mxGeometry>
                </mxCell>
                <mxCell id="185" value="BINARY(16)" style="shape=partialRectangle;html=1;whiteSpace=wrap;connectable=0;fillColor=none;top=0;left=0;bottom=0;right=0;overflow=hidden;labelBackgroundColor=none;strokeColor=none;strokeWidth=0;spacing=0;spacingTop=8;spacingLeft=8;spacingRight=8;spacingBottom=6;align=left;" vertex="1" parent="182">
                    <mxGeometry x="150" width="90" height="28" as="geometry">
                        <mxRectangle width="90" height="28" as="alternateBounds"/>
                    </mxGeometry>
                </mxCell>
                <mxCell id="186" style="shape=tableRow;horizontal=0;startSize=0;swimlaneHead=0;swimlaneBody=0;top=0;left=0;bottom=0;right=0;collapsible=0;dropTarget=0;fillColor=none;points=[[0,0.5],[1,0.5]];portConstraint=eastwest;labelBackgroundColor=none;" vertex="1" parent="177">
                    <mxGeometry y="84" width="240" height="27" as="geometry"/>
                </mxCell>
                <mxCell id="187" value="FK" style="shape=partialRectangle;html=1;whiteSpace=wrap;connectable=0;fillColor=none;top=0;left=0;bottom=0;right=0;overflow=hidden;labelBackgroundColor=none;strokeColor=none;strokeWidth=0;spacing=0;spacingTop=8;spacingLeft=8;spacingRight=8;spacingBottom=6;" vertex="1" parent="186">
                    <mxGeometry width="40" height="27" as="geometry">
                        <mxRectangle width="40" height="27" as="alternateBounds"/>
                    </mxGeometry>
                </mxCell>
                <mxCell id="188" value="locationId" style="shape=partialRectangle;html=1;whiteSpace=wrap;connectable=0;fillColor=none;top=0;left=0;bottom=0;right=0;overflow=hidden;labelBackgroundColor=none;strokeColor=none;strokeWidth=0;spacing=0;spacingTop=8;spacingLeft=8;spacingRight=8;spacingBottom=6;align=left;" vertex="1" parent="186">
                    <mxGeometry x="40" width="110" height="27" as="geometry">
                        <mxRectangle width="110" height="27" as="alternateBounds"/>
                    </mxGeometry>
                </mxCell>
                <mxCell id="189" value="BINARY(16)" style="shape=partialRectangle;html=1;whiteSpace=wrap;connectable=0;fillColor=none;top=0;left=0;bottom=0;right=0;overflow=hidden;labelBackgroundColor=none;strokeColor=none;strokeWidth=0;spacing=0;spacingTop=8;spacingLeft=8;spacingRight=8;spacingBottom=6;align=left;" vertex="1" parent="186">
                    <mxGeometry x="150" width="90" height="27" as="geometry">
                        <mxRectangle width="90" height="27" as="alternateBounds"/>
                    </mxGeometry>
                </mxCell>
                <mxCell id="190" style="shape=tableRow;horizontal=0;startSize=0;swimlaneHead=0;swimlaneBody=0;top=0;left=0;bottom=0;right=0;collapsible=0;dropTarget=0;fillColor=none;points=[[0,0.5],[1,0.5]];portConstraint=eastwest;labelBackgroundColor=none;" vertex="1" parent="177">
                    <mxGeometry y="111" width="240" height="28" as="geometry"/>
                </mxCell>
                <mxCell id="191" style="shape=partialRectangle;html=1;whiteSpace=wrap;connectable=0;fillColor=none;top=0;left=0;bottom=0;right=0;overflow=hidden;labelBackgroundColor=none;strokeColor=none;strokeWidth=0;spacing=0;spacingTop=8;spacingLeft=8;spacingRight=8;spacingBottom=6;" vertex="1" parent="190">
                    <mxGeometry width="40" height="28" as="geometry">
                        <mxRectangle width="40" height="28" as="alternateBounds"/>
                    </mxGeometry>
                </mxCell>
                <mxCell id="192" value="image" style="shape=partialRectangle;html=1;whiteSpace=wrap;connectable=0;fillColor=none;top=0;left=0;bottom=0;right=0;overflow=hidden;labelBackgroundColor=none;strokeColor=none;strokeWidth=0;spacing=0;spacingTop=8;spacingLeft=8;spacingRight=8;spacingBottom=6;align=left;" vertex="1" parent="190">
                    <mxGeometry x="40" width="110" height="28" as="geometry">
                        <mxRectangle width="110" height="28" as="alternateBounds"/>
                    </mxGeometry>
                </mxCell>
                <mxCell id="193" value="VARCHAR" style="shape=partialRectangle;html=1;whiteSpace=wrap;connectable=0;fillColor=none;top=0;left=0;bottom=0;right=0;overflow=hidden;labelBackgroundColor=none;strokeColor=none;strokeWidth=0;spacing=0;spacingTop=8;spacingLeft=8;spacingRight=8;spacingBottom=6;align=left;" vertex="1" parent="190">
                    <mxGeometry x="150" width="90" height="28" as="geometry">
                        <mxRectangle width="90" height="28" as="alternateBounds"/>
                    </mxGeometry>
                </mxCell>
                <mxCell id="202" style="shape=tableRow;horizontal=0;startSize=0;swimlaneHead=0;swimlaneBody=0;top=0;left=0;bottom=0;right=0;collapsible=0;dropTarget=0;fillColor=none;points=[[0,0.5],[1,0.5]];portConstraint=eastwest;labelBackgroundColor=none;" vertex="1" parent="177">
                    <mxGeometry y="139" width="240" height="28" as="geometry"/>
                </mxCell>
                <mxCell id="203" style="shape=partialRectangle;html=1;whiteSpace=wrap;connectable=0;fillColor=none;top=0;left=0;bottom=0;right=0;overflow=hidden;labelBackgroundColor=none;strokeColor=none;strokeWidth=0;spacing=0;spacingTop=8;spacingLeft=8;spacingRight=8;spacingBottom=6;" vertex="1" parent="202">
                    <mxGeometry width="40" height="28" as="geometry">
                        <mxRectangle width="40" height="28" as="alternateBounds"/>
                    </mxGeometry>
                </mxCell>
                <mxCell id="204" value="bio" style="shape=partialRectangle;html=1;whiteSpace=wrap;connectable=0;fillColor=none;top=0;left=0;bottom=0;right=0;overflow=hidden;labelBackgroundColor=none;strokeColor=none;strokeWidth=0;spacing=0;spacingTop=8;spacingLeft=8;spacingRight=8;spacingBottom=6;align=left;" vertex="1" parent="202">
                    <mxGeometry x="40" width="110" height="28" as="geometry">
                        <mxRectangle width="110" height="28" as="alternateBounds"/>
                    </mxGeometry>
                </mxCell>
                <mxCell id="205" value="LONGTEXT" style="shape=partialRectangle;html=1;whiteSpace=wrap;connectable=0;fillColor=none;top=0;left=0;bottom=0;right=0;overflow=hidden;labelBackgroundColor=none;strokeColor=none;strokeWidth=0;spacing=0;spacingTop=8;spacingLeft=8;spacingRight=8;spacingBottom=6;align=left;" vertex="1" parent="202">
                    <mxGeometry x="150" width="90" height="28" as="geometry">
                        <mxRectangle width="90" height="28" as="alternateBounds"/>
                    </mxGeometry>
                </mxCell>
                <mxCell id="194" style="shape=tableRow;horizontal=0;startSize=0;swimlaneHead=0;swimlaneBody=0;top=0;left=0;bottom=0;right=0;collapsible=0;dropTarget=0;fillColor=none;points=[[0,0.5],[1,0.5]];portConstraint=eastwest;labelBackgroundColor=none;" vertex="1" parent="177">
                    <mxGeometry y="167" width="240" height="27" as="geometry"/>
                </mxCell>
                <mxCell id="195" style="shape=partialRectangle;html=1;whiteSpace=wrap;connectable=0;fillColor=none;top=0;left=0;bottom=0;right=0;overflow=hidden;labelBackgroundColor=none;strokeColor=none;strokeWidth=0;spacing=0;spacingTop=8;spacingLeft=8;spacingRight=8;spacingBottom=6;" vertex="1" parent="194">
                    <mxGeometry width="40" height="27" as="geometry">
                        <mxRectangle width="40" height="27" as="alternateBounds"/>
                    </mxGeometry>
                </mxCell>
                <mxCell id="196" value="createdAt" style="shape=partialRectangle;html=1;whiteSpace=wrap;connectable=0;fillColor=none;top=0;left=0;bottom=0;right=0;overflow=hidden;labelBackgroundColor=none;strokeColor=none;strokeWidth=0;spacing=0;spacingTop=8;spacingLeft=8;spacingRight=8;spacingBottom=6;align=left;" vertex="1" parent="194">
                    <mxGeometry x="40" width="110" height="27" as="geometry">
                        <mxRectangle width="110" height="27" as="alternateBounds"/>
                    </mxGeometry>
                </mxCell>
                <mxCell id="197" value="DATETIME" style="shape=partialRectangle;html=1;whiteSpace=wrap;connectable=0;fillColor=none;top=0;left=0;bottom=0;right=0;overflow=hidden;labelBackgroundColor=none;strokeColor=none;strokeWidth=0;spacing=0;spacingTop=8;spacingLeft=8;spacingRight=8;spacingBottom=6;align=left;" vertex="1" parent="194">
                    <mxGeometry x="150" width="90" height="27" as="geometry">
                        <mxRectangle width="90" height="27" as="alternateBounds"/>
                    </mxGeometry>
                </mxCell>
                <mxCell id="198" style="shape=tableRow;horizontal=0;startSize=0;swimlaneHead=0;swimlaneBody=0;top=0;left=0;bottom=0;right=0;collapsible=0;dropTarget=0;fillColor=none;points=[[0,0.5],[1,0.5]];portConstraint=eastwest;labelBackgroundColor=none;" vertex="1" parent="177">
                    <mxGeometry y="194" width="240" height="28" as="geometry"/>
                </mxCell>
                <mxCell id="199" style="shape=partialRectangle;html=1;whiteSpace=wrap;connectable=0;fillColor=none;top=0;left=0;bottom=0;right=0;overflow=hidden;labelBackgroundColor=none;strokeColor=none;strokeWidth=0;spacing=0;spacingTop=8;spacingLeft=8;spacingRight=8;spacingBottom=6;" vertex="1" parent="198">
                    <mxGeometry width="40" height="28" as="geometry">
                        <mxRectangle width="40" height="28" as="alternateBounds"/>
                    </mxGeometry>
                </mxCell>
                <mxCell id="200" value="updatedAt" style="shape=partialRectangle;html=1;whiteSpace=wrap;connectable=0;fillColor=none;top=0;left=0;bottom=0;right=0;overflow=hidden;labelBackgroundColor=none;strokeColor=none;strokeWidth=0;spacing=0;spacingTop=8;spacingLeft=8;spacingRight=8;spacingBottom=6;align=left;" vertex="1" parent="198">
                    <mxGeometry x="40" width="110" height="28" as="geometry">
                        <mxRectangle width="110" height="28" as="alternateBounds"/>
                    </mxGeometry>
                </mxCell>
                <mxCell id="201" value="DATETIME" style="shape=partialRectangle;html=1;whiteSpace=wrap;connectable=0;fillColor=none;top=0;left=0;bottom=0;right=0;overflow=hidden;labelBackgroundColor=none;strokeColor=none;strokeWidth=0;spacing=0;spacingTop=8;spacingLeft=8;spacingRight=8;spacingBottom=6;align=left;" vertex="1" parent="198">
                    <mxGeometry x="150" width="90" height="28" as="geometry">
                        <mxRectangle width="90" height="28" as="alternateBounds"/>
                    </mxGeometry>
                </mxCell>
                <mxCell id="206" style="edgeStyle=none;html=1;exitX=0;exitY=0.5;exitDx=0;exitDy=0;entryX=0;entryY=0.5;entryDx=0;entryDy=0;" edge="1" parent="1" source="157" target="21">
                    <mxGeometry relative="1" as="geometry">
                        <Array as="points">
                            <mxPoint x="160" y="260"/>
                        </Array>
                    </mxGeometry>
                </mxCell>
                <mxCell id="207" style="edgeStyle=none;html=1;exitX=0;exitY=0.5;exitDx=0;exitDy=0;" edge="1" parent="1" source="182">
                    <mxGeometry relative="1" as="geometry">
                        <mxPoint x="190.23529411764707" y="150" as="targetPoint"/>
                        <Array as="points">
                            <mxPoint x="140" y="240"/>
                        </Array>
                    </mxGeometry>
                </mxCell>
                <mxCell id="208" style="edgeStyle=none;html=1;exitX=0;exitY=0.5;exitDx=0;exitDy=0;entryX=0;entryY=0.5;entryDx=0;entryDy=0;" edge="1" parent="1" source="116" target="83">
                    <mxGeometry relative="1" as="geometry">
                        <Array as="points">
                            <mxPoint x="470" y="390"/>
                        </Array>
                    </mxGeometry>
                </mxCell>
                <mxCell id="210" style="edgeStyle=none;html=1;exitX=1;exitY=0.5;exitDx=0;exitDy=0;entryX=0;entryY=0.5;entryDx=0;entryDy=0;" edge="1" parent="1" source="186" target="112">
                    <mxGeometry relative="1" as="geometry"/>
                </mxCell>
                <mxCell id="211" style="edgeStyle=none;html=1;exitX=0;exitY=0.5;exitDx=0;exitDy=0;entryX=1;entryY=0.5;entryDx=0;entryDy=0;" edge="1" parent="1" source="62" target="21">
                    <mxGeometry relative="1" as="geometry"/>
                </mxCell>
                <mxCell id="212" style="edgeStyle=none;html=1;exitX=0;exitY=0.5;exitDx=0;exitDy=0;entryX=0;entryY=0.5;entryDx=0;entryDy=0;" edge="1" parent="1" source="58" target="83">
                    <mxGeometry relative="1" as="geometry">
                        <Array as="points">
                            <mxPoint x="450" y="230"/>
                        </Array>
                    </mxGeometry>
                </mxCell>
            </root>
        </mxGraphModel>
    </diagram>
</mxfile>